<mxfile host="app.diagrams.net" modified="2024-01-18T14:47:33.505Z" agent="Mozilla/5.0 (Windows NT 10.0; Win64; x64) AppleWebKit/537.36 (KHTML, like Gecko) Chrome/120.0.0.0 Safari/537.36" etag="-s58li0XnB9gtYW4wn1M" version="22.1.18" type="google">
  <diagram id="C5RBs43oDa-KdzZeNtuy" name="Page-1">
    <mxGraphModel grid="1" page="1" gridSize="10" guides="1" tooltips="1" connect="1" arrows="1" fold="1" pageScale="1" pageWidth="827" pageHeight="1169" math="0" shadow="0">
      <root>
        <mxCell id="WIyWlLk6GJQsqaUBKTNV-0" />
        <mxCell id="WIyWlLk6GJQsqaUBKTNV-1" parent="WIyWlLk6GJQsqaUBKTNV-0" />
        <mxCell id="dmeA1aLN9t57h1svSs7j-29" style="edgeStyle=orthogonalEdgeStyle;rounded=0;orthogonalLoop=1;jettySize=auto;html=1;entryX=0;entryY=0.5;entryDx=0;entryDy=0;" edge="1" parent="WIyWlLk6GJQsqaUBKTNV-1" source="WIyWlLk6GJQsqaUBKTNV-3" target="dmeA1aLN9t57h1svSs7j-1">
          <mxGeometry relative="1" as="geometry" />
        </mxCell>
        <mxCell id="WIyWlLk6GJQsqaUBKTNV-3" value="Go button is clicked" style="rounded=1;whiteSpace=wrap;html=1;fontSize=12;glass=0;strokeWidth=1;shadow=0;" vertex="1" parent="WIyWlLk6GJQsqaUBKTNV-1">
          <mxGeometry x="40" y="45" width="120" height="40" as="geometry" />
        </mxCell>
        <mxCell id="WIyWlLk6GJQsqaUBKTNV-8" value="No" style="rounded=0;html=1;jettySize=auto;orthogonalLoop=1;fontSize=11;endArrow=block;endFill=0;endSize=8;strokeWidth=1;shadow=0;labelBackgroundColor=none;edgeStyle=orthogonalEdgeStyle;" edge="1" parent="WIyWlLk6GJQsqaUBKTNV-1">
          <mxGeometry x="0.3333" y="20" relative="1" as="geometry">
            <mxPoint as="offset" />
            <mxPoint x="240" y="430" as="targetPoint" />
          </mxGeometry>
        </mxCell>
        <mxCell id="dmeA1aLN9t57h1svSs7j-30" value="" style="edgeStyle=orthogonalEdgeStyle;rounded=0;orthogonalLoop=1;jettySize=auto;html=1;" edge="1" parent="WIyWlLk6GJQsqaUBKTNV-1" source="dmeA1aLN9t57h1svSs7j-1" target="dmeA1aLN9t57h1svSs7j-2">
          <mxGeometry relative="1" as="geometry" />
        </mxCell>
        <mxCell id="dmeA1aLN9t57h1svSs7j-1" value="UpdateMatrixVisualisation&amp;nbsp;function is called." style="rounded=1;whiteSpace=wrap;html=1;fontSize=12;glass=0;strokeWidth=1;shadow=0;" vertex="1" parent="WIyWlLk6GJQsqaUBKTNV-1">
          <mxGeometry x="189" y="40" width="190" height="50" as="geometry" />
        </mxCell>
        <mxCell id="dmeA1aLN9t57h1svSs7j-31" value="" style="edgeStyle=orthogonalEdgeStyle;rounded=0;orthogonalLoop=1;jettySize=auto;html=1;" edge="1" parent="WIyWlLk6GJQsqaUBKTNV-1" source="dmeA1aLN9t57h1svSs7j-2" target="dmeA1aLN9t57h1svSs7j-5">
          <mxGeometry relative="1" as="geometry" />
        </mxCell>
        <mxCell id="dmeA1aLN9t57h1svSs7j-2" value="UpdateMatrixVisualisation parses matrix inputted from GUI to MathsLibrary.Matrix." style="rounded=1;whiteSpace=wrap;html=1;fontSize=12;glass=0;strokeWidth=1;shadow=0;" vertex="1" parent="WIyWlLk6GJQsqaUBKTNV-1">
          <mxGeometry x="414" y="40" width="170" height="50" as="geometry" />
        </mxCell>
        <mxCell id="dmeA1aLN9t57h1svSs7j-32" value="" style="edgeStyle=orthogonalEdgeStyle;rounded=0;orthogonalLoop=1;jettySize=auto;html=1;" edge="1" parent="WIyWlLk6GJQsqaUBKTNV-1" source="dmeA1aLN9t57h1svSs7j-5" target="dmeA1aLN9t57h1svSs7j-12">
          <mxGeometry relative="1" as="geometry" />
        </mxCell>
        <mxCell id="dmeA1aLN9t57h1svSs7j-5" value="CreatePlot is called with the recently parsed matrix, m as a parameter." style="rounded=1;whiteSpace=wrap;html=1;fontSize=12;glass=0;strokeWidth=1;shadow=0;" vertex="1" parent="WIyWlLk6GJQsqaUBKTNV-1">
          <mxGeometry x="620" y="39" width="170" height="50" as="geometry" />
        </mxCell>
        <mxCell id="dmeA1aLN9t57h1svSs7j-10" value="" style="edgeStyle=orthogonalEdgeStyle;rounded=0;orthogonalLoop=1;jettySize=auto;html=1;" edge="1" parent="WIyWlLk6GJQsqaUBKTNV-1" source="dmeA1aLN9t57h1svSs7j-7" target="dmeA1aLN9t57h1svSs7j-9">
          <mxGeometry relative="1" as="geometry" />
        </mxCell>
        <mxCell id="dmeA1aLN9t57h1svSs7j-15" value="Yes" style="edgeStyle=orthogonalEdgeStyle;rounded=0;orthogonalLoop=1;jettySize=auto;html=1;" edge="1" parent="WIyWlLk6GJQsqaUBKTNV-1" source="dmeA1aLN9t57h1svSs7j-7" target="dmeA1aLN9t57h1svSs7j-9">
          <mxGeometry relative="1" as="geometry" />
        </mxCell>
        <mxCell id="dmeA1aLN9t57h1svSs7j-17" value="No" style="edgeStyle=orthogonalEdgeStyle;rounded=0;orthogonalLoop=1;jettySize=auto;html=1;" edge="1" parent="WIyWlLk6GJQsqaUBKTNV-1" source="dmeA1aLN9t57h1svSs7j-7" target="dmeA1aLN9t57h1svSs7j-16">
          <mxGeometry relative="1" as="geometry" />
        </mxCell>
        <mxCell id="dmeA1aLN9t57h1svSs7j-7" value="Is m numeric" style="rhombus;whiteSpace=wrap;html=1;" vertex="1" parent="WIyWlLk6GJQsqaUBKTNV-1">
          <mxGeometry x="640" y="210" width="130" height="120" as="geometry" />
        </mxCell>
        <mxCell id="dmeA1aLN9t57h1svSs7j-34" value="" style="edgeStyle=orthogonalEdgeStyle;rounded=0;orthogonalLoop=1;jettySize=auto;html=1;" edge="1" parent="WIyWlLk6GJQsqaUBKTNV-1" source="dmeA1aLN9t57h1svSs7j-9" target="dmeA1aLN9t57h1svSs7j-19">
          <mxGeometry relative="1" as="geometry" />
        </mxCell>
        <mxCell id="dmeA1aLN9t57h1svSs7j-9" value="Plot vector field" style="rounded=1;whiteSpace=wrap;html=1;" vertex="1" parent="WIyWlLk6GJQsqaUBKTNV-1">
          <mxGeometry x="645" y="370" width="120" height="40" as="geometry" />
        </mxCell>
        <mxCell id="dmeA1aLN9t57h1svSs7j-14" value="" style="edgeStyle=orthogonalEdgeStyle;rounded=0;orthogonalLoop=1;jettySize=auto;html=1;" edge="1" parent="WIyWlLk6GJQsqaUBKTNV-1" source="dmeA1aLN9t57h1svSs7j-12" target="dmeA1aLN9t57h1svSs7j-7">
          <mxGeometry relative="1" as="geometry" />
        </mxCell>
        <mxCell id="dmeA1aLN9t57h1svSs7j-12" value="Clear vector field" style="rounded=1;whiteSpace=wrap;html=1;fontSize=12;glass=0;strokeWidth=1;shadow=0;" vertex="1" parent="WIyWlLk6GJQsqaUBKTNV-1">
          <mxGeometry x="620" y="130" width="170" height="50" as="geometry" />
        </mxCell>
        <mxCell id="dmeA1aLN9t57h1svSs7j-20" value="" style="edgeStyle=orthogonalEdgeStyle;rounded=0;orthogonalLoop=1;jettySize=auto;html=1;" edge="1" parent="WIyWlLk6GJQsqaUBKTNV-1" source="dmeA1aLN9t57h1svSs7j-16" target="dmeA1aLN9t57h1svSs7j-19">
          <mxGeometry relative="1" as="geometry" />
        </mxCell>
        <mxCell id="dmeA1aLN9t57h1svSs7j-16" value="Write message to latex saying matrix is not numeric" style="rounded=1;whiteSpace=wrap;html=1;" vertex="1" parent="WIyWlLk6GJQsqaUBKTNV-1">
          <mxGeometry x="460" y="244" width="140" height="50" as="geometry" />
        </mxCell>
        <mxCell id="dmeA1aLN9t57h1svSs7j-22" value="" style="edgeStyle=orthogonalEdgeStyle;rounded=0;orthogonalLoop=1;jettySize=auto;html=1;" edge="1" parent="WIyWlLk6GJQsqaUBKTNV-1" source="dmeA1aLN9t57h1svSs7j-19" target="dmeA1aLN9t57h1svSs7j-21">
          <mxGeometry relative="1" as="geometry" />
        </mxCell>
        <mxCell id="dmeA1aLN9t57h1svSs7j-19" value="Get eigen values from m.GetIgenValues" style="rounded=1;whiteSpace=wrap;html=1;" vertex="1" parent="WIyWlLk6GJQsqaUBKTNV-1">
          <mxGeometry x="470" y="370" width="120" height="40" as="geometry" />
        </mxCell>
        <mxCell id="dmeA1aLN9t57h1svSs7j-25" value="" style="edgeStyle=orthogonalEdgeStyle;rounded=0;orthogonalLoop=1;jettySize=auto;html=1;" edge="1" parent="WIyWlLk6GJQsqaUBKTNV-1" source="dmeA1aLN9t57h1svSs7j-21" target="dmeA1aLN9t57h1svSs7j-24">
          <mxGeometry relative="1" as="geometry" />
        </mxCell>
        <mxCell id="dmeA1aLN9t57h1svSs7j-21" value="Get eigen vectors by parsing in eigen values into m.GetEigenVectors" style="rounded=1;whiteSpace=wrap;html=1;" vertex="1" parent="WIyWlLk6GJQsqaUBKTNV-1">
          <mxGeometry x="260" y="359" width="160" height="60" as="geometry" />
        </mxCell>
        <mxCell id="dmeA1aLN9t57h1svSs7j-28" value="" style="edgeStyle=orthogonalEdgeStyle;rounded=0;orthogonalLoop=1;jettySize=auto;html=1;" edge="1" parent="WIyWlLk6GJQsqaUBKTNV-1" source="dmeA1aLN9t57h1svSs7j-24" target="dmeA1aLN9t57h1svSs7j-27">
          <mxGeometry relative="1" as="geometry" />
        </mxCell>
        <mxCell id="dmeA1aLN9t57h1svSs7j-24" value="Convert eigen vectors to equations of lines and print to latex display" style="rounded=1;whiteSpace=wrap;html=1;" vertex="1" parent="WIyWlLk6GJQsqaUBKTNV-1">
          <mxGeometry x="50" y="360" width="160" height="60" as="geometry" />
        </mxCell>
        <mxCell id="dmeA1aLN9t57h1svSs7j-27" value="End" style="rounded=1;whiteSpace=wrap;html=1;" vertex="1" parent="WIyWlLk6GJQsqaUBKTNV-1">
          <mxGeometry x="69" y="440" width="120" height="40" as="geometry" />
        </mxCell>
      </root>
    </mxGraphModel>
  </diagram>
</mxfile>
